<svg width="76" height="76" viewBox="0 0 76 76" fill="none" xmlns="http://www.w3.org/2000/svg">
<g clip-path="url(#clip0_755_1836)">
<path d="M37.9602 -0.000201502C58.6933 -0.187521 76.4463 17.1057 75.9921 38.8826C75.5698 58.9577 58.8128 76.4701 37.0081 75.9879C17.024 75.5455 -0.581604 58.7823 0.0160061 36.8181C0.561823 16.755 17.2112 -0.0799121 37.9602 -0.000201502ZM74.2471 34.6261C73.8766 26.3641 69.7571 17.3129 61.5459 10.3263C53.3347 3.33967 43.7332 0.61357 33.0439 1.97662C14.9284 4.28424 -0.81268 21.2028 1.99609 42.9518C4.33872 61.1019 21.2351 76.8487 42.9284 73.9831C62.1555 71.4404 74.8447 54.6533 74.2471 34.6261Z" fill="#0B0B0B"/>
<path d="M13.0238 37.9781C12.976 24.236 24.223 12.8932 38.2071 12.9928C51.741 13.0925 63.1314 24.1683 62.976 38.3049C62.8286 51.8318 51.7529 63.1188 37.7011 62.9713C24.1155 62.8319 12.992 51.7441 13.0238 37.9781ZM14.5059 37.9661C14.4661 51.0506 25.2191 61.5126 38.0318 61.4887C50.9561 61.4688 61.5179 50.8474 61.494 37.9343C61.4661 25.1168 50.992 14.4914 38.0238 14.4794C25.0557 14.4675 14.478 25.0451 14.5059 37.9661Z" fill="#0B0B0B"/>
<path d="M70.5657 37.9622C70.4861 34.3353 70.2789 31.3223 69.498 28.373C69.4542 28.2056 69.4343 28.0023 69.498 27.8509C69.5618 27.6994 69.7729 27.5878 69.8566 27.6197C70.0319 27.6875 70.2629 27.8389 70.3068 28.0023C70.506 28.6958 70.6653 29.4013 70.7968 30.1107C71.251 32.5737 71.4183 35.0687 71.4104 37.5636C71.3984 42.5336 70.2032 47.2365 68.0438 51.7003C66.2112 55.4905 63.8088 58.8862 60.9084 61.9311C60.765 62.0826 60.6375 62.2819 60.4622 62.3576C60.2869 62.4333 59.9602 62.4971 59.8048 62.4014C59.5538 62.242 59.6415 61.959 59.8327 61.7518C60.3666 61.1699 60.9124 60.6079 61.4303 60.0181C64.7171 56.2916 67.2191 52.1028 68.8406 47.3999C69.5339 45.3872 70.0598 43.3347 70.2749 41.2104C70.4064 39.935 70.502 38.6517 70.5657 37.9622Z" fill="#0B0B0B"/>
<path d="M4.37048 38.269C4.47008 36.4356 4.47407 34.6421 4.68522 32.8686C4.89638 31.095 5.30674 29.3932 5.63742 27.6595C5.69718 27.3327 5.82068 27.0098 6.23104 27.1135C6.6414 27.2171 6.55375 27.5957 6.49399 27.8906C6.30674 28.8272 6.05973 29.7559 5.90435 30.6965C5.7171 31.8164 5.5657 32.9403 5.4661 34.0682C5.3665 35.1961 5.27088 36.3758 5.29479 37.5237C5.42228 44.4545 7.23901 50.9071 10.992 56.7538C12.0518 58.4038 13.3346 59.9104 14.5139 61.4846C14.5577 61.5444 14.6135 61.5962 14.6573 61.656C14.8446 61.8832 14.9362 62.1462 14.6972 62.3654C14.4581 62.5846 14.1792 62.473 13.9681 62.2379C11.5378 59.4919 9.53781 56.4629 7.96809 53.1549C6.51391 50.086 5.50196 46.8259 4.95216 43.4741C4.66929 41.7443 4.55773 39.9867 4.37048 38.269Z" fill="#0B0B0B"/>
<path d="M68.9402 37.6153C69.0558 41.561 68.2828 45.136 66.9402 48.6114C65.5179 52.2861 63.494 55.606 60.992 58.639C60.3147 59.464 59.5617 60.2212 58.8406 61.0064C58.6255 61.2415 58.3705 61.4408 58.0916 61.1379C57.8127 60.835 57.9761 60.6118 58.2072 60.3687C61.3665 57.1245 63.8884 53.4458 65.6813 49.277C66.7251 46.8618 67.49 44.3549 67.8446 41.7443C68.0637 40.1063 68.235 38.4603 68.0637 36.7943C67.9283 35.4711 67.9163 34.14 67.7609 32.8208C67.6454 31.8323 67.3944 30.8559 67.1992 29.8754C67.1753 29.7479 67.0916 29.6044 67.1235 29.4928C67.1713 29.3015 67.247 29.0385 67.3904 28.9707C67.6334 28.8512 67.8884 28.9588 67.9641 29.2697C68.1155 29.8994 68.2789 30.5251 68.3984 31.1588C68.8127 33.3588 68.992 35.5787 68.9402 37.6153Z" fill="#0B0B0B"/>
<path d="M6.52588 37.448C6.58962 34.8654 6.77289 32.0476 7.50596 29.2936C7.54978 29.1262 7.65735 28.911 7.7968 28.8432C8.18723 28.6559 8.46213 28.9429 8.36253 29.4251C8.22309 30.1186 8.0199 30.8041 7.9203 31.5056C7.75297 32.6893 7.61353 33.881 7.51393 35.0726C7.43823 35.9455 7.43425 36.8223 7.41433 37.6951C7.33464 41.0589 7.99201 44.2912 9.14739 47.4317C10.9083 52.2064 13.6215 56.3793 17.1514 60.03C17.4143 60.305 17.6454 60.58 17.4143 60.9546C17.2749 61.1778 16.8327 61.0463 16.502 60.6996C12.1235 56.1282 8.96413 50.8553 7.38245 44.6897C6.79281 42.398 6.52588 40.0665 6.52588 37.448Z" fill="#0B0B0B"/>
<path d="M66.7649 38.5957C66.737 43.8925 65.0637 48.6632 62.223 53.0672C60.6892 55.4505 58.8525 57.6266 56.7649 59.5397C56.5218 59.7628 56.2549 59.9103 55.9959 59.6393C55.737 59.3683 55.9242 59.0933 56.1553 58.8781C58.6892 56.5386 60.8167 53.8762 62.5059 50.8632C63.976 48.2407 65.0238 45.4628 65.5338 42.4975C65.8884 40.4609 65.8844 38.4084 65.7489 36.3479C65.6334 34.5464 65.3625 32.7768 64.8724 31.0352C64.7928 30.7602 64.8167 30.4772 65.1513 30.3935C65.486 30.3098 65.6732 30.5011 65.729 30.804C66.0039 32.2906 66.3107 33.7772 66.5218 35.2758C66.6732 36.3718 66.6892 37.4877 66.7649 38.5957Z" fill="#0B0B0B"/>
<path d="M10.6614 30.6525C10.506 31.3102 10.3227 31.892 10.2391 32.4899C10.0438 33.8649 9.82871 35.2399 9.74504 36.6268C9.66138 38.0138 9.64943 39.3569 9.75699 40.708C9.93229 42.9001 10.4901 45.0204 11.2948 47.0729C13.0359 51.5128 15.749 55.2871 19.1913 58.5592C19.5777 58.9259 19.7211 59.3364 19.4861 59.4918C19.1076 59.7389 18.8287 59.4958 18.5618 59.2367C14.3148 55.1874 11.1674 50.4526 9.6056 44.7454C8.8048 41.824 8.70122 38.8508 8.91237 35.8457C9.0319 34.1399 9.29086 32.466 9.73707 30.8199C9.7809 30.6486 9.82871 30.4373 9.95221 30.3496C10.0757 30.262 10.3068 30.25 10.4502 30.3098C10.5936 30.3696 10.6056 30.5529 10.6614 30.6525Z" fill="#0B0B0B"/>
<path d="M40.7808 68.9495C40.6533 67.6622 40.5259 66.3789 40.3944 65.0597L41.6334 64.9202C41.8486 67.0285 42.0597 69.1089 42.2709 71.2093C41.9043 71.2532 41.5976 71.3289 41.2948 71.3169C41.1394 71.309 40.9561 71.1695 40.8486 71.0379C40.0199 70.0336 39.2031 69.0133 38.3864 67.997C38.3067 67.8973 38.231 67.7897 38.0757 67.7419L38.4621 71.5999L37.2231 71.7354C37.0079 69.643 36.7968 67.5785 36.5776 65.4502C36.9721 65.4104 37.3187 65.3546 37.6653 65.3506C37.7649 65.3506 37.8844 65.4781 37.9641 65.5738C38.8326 66.6419 39.6972 67.718 40.5577 68.7901C40.6135 68.8579 40.6573 68.9296 40.7091 69.0013L40.7808 68.9495Z" fill="#0B0B0B"/>
<path d="M41.6136 10.211L40.3865 9.9798C40.7769 7.90733 41.1554 5.8787 41.5458 3.79028C41.8964 3.85007 42.2351 3.87796 42.5498 3.97362C42.6733 4.00949 42.7849 4.17688 42.8446 4.31239C43.3506 5.50804 43.8486 6.71167 44.3466 7.91132C44.3984 8.03487 44.4582 8.15842 44.5697 8.40552C44.8327 7.02653 45.0677 5.78703 45.3108 4.49572C45.6654 4.5555 46.004 4.57942 46.3187 4.67906C46.4064 4.70695 46.4901 4.95804 46.4662 5.08956C46.1355 6.90696 45.7849 8.72038 45.4422 10.5378C45.4223 10.6374 45.4104 10.7371 45.3825 10.9124C45.0239 10.8486 44.6813 10.8048 44.3506 10.7131C44.2391 10.6813 44.1395 10.5218 44.0877 10.3983C43.5578 9.14683 43.0359 7.89139 42.51 6.63993C42.4781 6.56022 42.4383 6.4845 42.3546 6.30116C42.0996 7.65226 41.8606 8.89973 41.6136 10.211Z" fill="#0B0B0B"/>
<path d="M59.7371 21.3423L65.2111 18.1619C65.741 19.0746 66.4024 19.9195 66.5936 20.9637C66.6852 21.4579 66.6095 22.0438 66.4223 22.5141C65.8048 24.0445 63.8606 24.9691 62.4024 24.5188C61.8406 24.3554 61.3626 23.9927 61.0558 23.4945C60.6136 22.793 60.1912 22.0836 59.7371 21.3423ZM61.4343 21.8006C61.8884 22.4941 62.1474 23.3709 63.1554 23.363C64.0598 23.359 64.7888 22.9365 65.2231 22.1354C65.6574 21.3343 65.2351 20.5771 64.7968 19.8438L61.4343 21.8006Z" fill="#0B0B0B"/>
<path d="M18.5936 17.6917L14.6653 12.7297C15.5298 12.0641 16.2868 11.3069 17.3067 10.9243C18.0039 10.6612 18.6733 10.7928 19.3227 11.1036C20.737 11.7732 21.6294 13.3754 21.2868 14.7743C21.1792 15.2207 20.8964 15.679 20.5697 16.0098C19.976 16.6037 19.2908 17.1058 18.5936 17.6917ZM16.3744 12.8971L18.7968 15.954C19.4302 15.412 20.243 15.0174 20.1155 14.0569C19.988 13.0964 19.4581 12.4667 18.5856 12.1399C17.7131 11.8131 17.0517 12.379 16.3744 12.8971Z" fill="#0B0B0B"/>
<path d="M37.8088 9.86405L37.6175 9.89992C36.5896 10.0793 36.5777 10.0833 36.1195 9.16658C35.9761 8.87962 35.8167 8.79194 35.498 8.84774C34.9163 8.95136 34.3267 9.01912 33.737 9.06694C33.506 9.08687 33.4104 9.17455 33.3466 9.38579C33.0279 10.4778 33.0239 10.4738 31.8406 10.5695C31.8406 10.4858 31.8247 10.3981 31.8446 10.3224C32.3426 8.37745 32.8486 6.43251 33.3386 4.48359C33.4183 4.16076 33.5299 4.00533 33.9084 3.97344C34.7092 3.90967 34.7092 3.8738 35.0797 4.57924L37.7131 9.60898C37.749 9.6847 37.7729 9.7684 37.8088 9.86405ZM34.3705 5.85461H34.2669C34.1036 6.49628 33.9362 7.13795 33.757 7.83143L35.3068 7.64013L34.3705 5.85461Z" fill="#0B0B0B"/>
<path d="M16.7928 19.4771C16.5936 19.788 16.4263 20.1029 16.1992 20.3659C16.1156 20.4616 15.8805 20.4775 15.7291 20.4496C14.753 20.2583 14.753 20.2503 14.2231 21.0674L13.3825 22.3507L14.1793 23.4906C13.9562 23.8333 13.7371 24.1761 13.4741 24.5746L11.757 22.1993C11.0797 21.2667 10.4183 20.3221 9.72512 19.3974C9.53787 19.1503 9.54583 18.9869 9.71715 18.7358C10.3267 17.863 10.012 18.0105 11.0438 18.2257C12.9124 18.6083 14.7729 19.0188 16.6335 19.4174C16.6893 19.4333 16.7411 19.4532 16.7928 19.4771ZM12.6136 21.2985L13.4741 19.9634L11.3347 19.517L12.6136 21.2985Z" fill="#0B0B0B"/>
<path d="M53.474 12.6939C53.5736 13.1164 53.6573 13.4711 53.737 13.8178C51.7051 14.607 49.5218 13.1841 49.1115 11.5062C48.6732 9.73266 49.9083 7.70402 51.6533 7.40112C53.6135 7.06235 55.6175 8.4533 55.7728 10.3026L54.6971 10.5656C53.98 8.93157 53.0278 8.29787 51.8286 8.64062C50.8605 8.91562 50.1115 10.0156 50.2708 10.9482C50.3943 11.6816 50.7928 12.2077 51.4501 12.5664C52.1075 12.9251 52.7609 12.8374 53.474 12.6939Z" fill="#0B0B0B"/>
<path d="M62.251 14.6667L61.4502 15.3921L59.9721 13.8138L59.1394 14.6747L60.6574 16.2291C60.3904 16.4881 60.1235 16.7392 59.8088 17.0381L58.3825 15.432C57.9203 15.9062 57.5618 16.2769 57.1992 16.6436L58.7968 18.174L57.8128 19.003L55.506 16.6356L59.9323 12.3232L62.251 14.6667Z" fill="#0B0B0B"/>
<path d="M27.3705 5.32861C27.4622 7.51667 27.5538 9.63298 27.6255 11.7533C27.6295 11.8888 27.4901 12.1 27.3626 12.1638C26.6016 12.5305 26.5897 12.5225 26.0239 11.8968C24.7171 10.446 23.4144 8.99131 22.1116 7.53261C22.1594 7.49275 22.1753 7.46485 22.2032 7.4529C23.2112 6.96268 23.2191 6.95471 23.9721 7.7837C24.7251 8.61269 25.514 9.50544 26.3466 10.4341C26.3626 10.2906 26.3745 10.1431 26.3745 9.99965C26.3187 8.75616 26.2709 7.51268 26.1913 6.2692C26.1673 5.91449 26.259 5.71521 26.6096 5.61956C26.8486 5.55579 27.0717 5.44419 27.3705 5.32861Z" fill="#0B0B0B"/>
<path d="M44.6852 64.2385L48.0637 63.2939C48.1792 63.6925 48.2828 64.0552 48.3983 64.4657L47.3067 64.8005L48.6653 69.6907L47.4461 70.0415C46.988 68.3994 46.5418 66.7972 46.0796 65.1552C45.8286 65.219 45.5935 65.2469 45.3784 65.3306C45.0677 65.4541 44.9481 65.3385 44.8924 65.0436C44.8366 64.7487 44.7649 64.5334 44.6852 64.2385Z" fill="#0B0B0B"/>
<path d="M26.247 64.5056L25.243 64.0473L25.7091 62.9233L28.9482 64.2944C28.7888 64.673 28.6414 65.0317 28.4741 65.4262L27.4223 64.9958L25.4302 69.6748L24.2709 69.1806C24.9322 67.6143 25.5776 66.0839 26.247 64.5056Z" fill="#0B0B0B"/>
<path d="M31.757 64.9719L32.992 65.1353C32.6813 67.2038 32.3745 69.2564 32.0558 71.3846L30.8247 71.2252C31.1315 69.1567 31.4382 67.1042 31.757 64.9719Z" fill="#0B0B0B"/>
<path d="M46.8804 42.1827C47.0677 42.358 47.231 42.5613 47.4382 42.7008C49.6852 44.2193 51.9362 45.7298 54.1872 47.2403C54.3147 47.328 54.4462 47.4157 54.5378 47.5711C53.1354 46.8856 51.741 46.1841 50.3307 45.5146C48.9203 44.845 47.5498 44.1037 46.0518 43.6613L45.9322 43.7968C46.0438 43.9801 46.1314 44.1914 46.2749 44.3428C47.6494 45.7617 49.0398 47.1606 50.4063 48.5834C51.0836 49.2889 51.7171 50.0381 52.4223 50.7236C49.9442 48.7986 47.5179 46.758 44.8406 45.0841L44.6693 45.2077C44.753 45.4349 44.8008 45.6899 44.9283 45.8892C45.9442 47.4715 46.9721 49.0497 48.0119 50.616C48.5617 51.453 49.1474 52.266 49.6892 53.115C47.5538 50.8472 45.6255 48.3841 43.3227 46.2798L43.1275 46.3794C43.1753 46.6026 43.1872 46.8378 43.2669 47.049C43.8207 48.4798 44.3785 49.9146 44.9601 51.3374C45.4103 52.4454 45.9004 53.5374 46.3745 54.6374C46.4303 54.757 46.4661 54.8806 46.4781 55.0121C44.8486 52.3976 43.4581 49.6436 41.6255 47.1646L41.4382 47.2044C41.4263 47.3878 41.3745 47.5791 41.4103 47.7544C41.9322 50.4925 42.4581 53.2305 42.996 55.9686C43.0358 56.1838 43.0797 56.3951 43.0637 56.6262C42.6056 55.295 42.1673 53.9599 41.6932 52.6327C41.1753 51.1899 40.6334 49.7512 40.0797 48.3164C39.996 48.1012 39.7968 47.9338 39.6534 47.7425C39.5777 47.9497 39.4502 48.153 39.4382 48.3642C39.3904 49.2211 39.3585 50.082 39.3546 50.9428C39.3546 52.8559 39.3745 54.7729 39.3824 56.686C39.3864 56.8335 39.3785 56.9809 39.3585 57.1244C38.8565 54.0237 38.6414 50.8751 37.8565 47.8262L37.6573 47.8182C37.5737 48.0095 37.4621 48.1968 37.4183 48.4001C37 50.3171 36.5816 52.2342 36.1832 54.1592C35.9721 55.1834 35.8048 56.2157 35.5577 57.24C35.5896 56.7219 35.6215 56.2037 35.6494 55.6856C35.7689 53.4617 35.8844 51.2418 35.996 49.0218C36.0159 48.695 36.0119 48.3722 35.984 48.0454C35.9721 47.9019 35.8685 47.7704 35.8087 47.6349C35.7051 47.7265 35.5577 47.8023 35.5059 47.9178C34.9761 49.0577 34.4382 50.1976 33.9522 51.3534C33.2669 52.9874 32.6215 54.6374 31.8964 56.2635C32.0876 55.5501 32.2868 54.8367 32.4701 54.1193C32.9761 52.1186 33.482 50.1139 33.9801 48.1091C34.0438 47.866 34.0876 47.6189 34.1075 47.3678C34.1155 47.2562 34.0318 47.1407 33.992 47.0251C33.8884 47.0729 33.7569 47.0928 33.6892 47.1686C33.4223 47.4874 33.1514 47.8062 32.9203 48.149C31.5657 50.1657 30.2151 52.1863 28.8725 54.211C28.7729 54.3584 28.6773 54.5059 28.5099 54.6175C28.8804 53.8722 29.2629 53.1309 29.6215 52.3776C30.494 50.5363 31.3585 48.687 32.2111 46.8338C32.3107 46.6106 32.3107 46.3396 32.3585 46.0885C32.1195 46.2041 31.8366 46.2678 31.6573 46.4392C29.7769 48.2725 27.9123 50.1178 26.0438 51.9631C25.9044 52.0987 25.7808 52.2461 25.5777 52.3338C25.6454 52.2342 25.7051 52.1305 25.7769 52.0349C27.3904 49.8747 29.004 47.7106 30.6095 45.5464C30.7649 45.3352 30.8486 45.0762 30.9641 44.841L30.8366 44.7214C30.5777 44.841 30.3028 44.9287 30.0637 45.0801C28.3466 46.1921 26.6374 47.3081 24.9283 48.436C24.3028 48.8465 23.6892 49.2809 23.0079 49.6316C23.5777 49.1374 24.1514 48.6512 24.7091 48.145C26.2191 46.7859 27.7211 45.4189 29.2191 44.0439C29.4302 43.8446 29.5538 43.5537 29.7211 43.3066C29.4183 43.3424 29.0876 43.3106 28.8127 43.4222C26.3306 44.4185 23.8605 45.4388 21.3864 46.4512C21.2669 46.503 21.1474 46.5468 20.996 46.5309L21.2908 46.3436C23.6334 44.9486 25.9761 43.5617 28.3147 42.1588C28.5378 42.0272 28.7171 41.82 28.9163 41.6486L28.8406 41.4653C28.2948 41.5211 27.741 41.533 27.2032 41.6366C24.7848 42.1069 22.3705 42.6051 19.9561 43.0953C19.8605 43.1153 19.7649 43.0953 19.6812 43.0475C20.7649 42.6809 21.8486 42.3301 22.9243 41.9475C24.5538 41.3656 26.1753 40.7718 27.7928 40.162C27.996 40.0863 28.1553 39.899 28.3386 39.7674C28.1195 39.6917 27.9004 39.5522 27.6773 39.5522C24.9522 39.5124 22.2231 39.4884 19.494 39.4645C19.3306 39.4685 19.1673 39.4605 19.0079 39.4366C22.0876 38.9504 25.2071 38.7192 28.239 37.9779L28.251 37.7667C28.0318 37.675 27.8207 37.5515 27.5936 37.4997C25.7928 37.1051 23.988 36.7225 22.1832 36.3439C21.1713 36.1366 20.1553 35.9652 19.1434 35.742C22.235 35.8257 25.3147 36.2323 28.4103 36.0968L28.482 35.9094C28.3147 35.7819 28.1633 35.6145 27.9761 35.5308C26.49 34.8732 25 34.2156 23.502 33.5859C22.3067 33.0797 21.0916 32.6134 19.9043 32.0594C20.3107 32.167 20.7171 32.2786 21.1235 32.3783C23.486 32.9721 25.8486 33.566 28.2111 34.1439C28.4741 34.2076 28.753 34.1997 29.0239 34.2236L29.1075 34.0841C28.9442 33.9167 28.8047 33.7174 28.6175 33.5899C26.8486 32.3743 25.0717 31.1667 23.2908 29.9591C22.6733 29.5446 22.0438 29.15 21.4342 28.7116C24.2749 29.9989 27.004 31.5254 29.9283 32.6134L30.0637 32.438C29.9283 32.2348 29.8207 31.9996 29.6534 31.8283C28.3665 30.4931 27.0557 29.1819 25.7729 27.8427C25.0358 27.0775 24.3346 26.2804 23.5737 25.5391C26.0597 27.4482 28.4621 29.5087 31.1593 31.1428L31.3187 31.0232C31.2271 30.792 31.1713 30.5409 31.0398 30.3377C30.1793 28.9866 29.3187 27.6395 28.4342 26.3083C27.7131 25.2203 26.9601 24.1561 26.2749 23.0322C26.741 23.5623 27.1992 24.0963 27.6733 24.6184C29.1314 26.2206 30.5896 27.8188 32.0637 29.4051C32.247 29.6004 32.5338 29.7 32.7729 29.8435C32.741 29.5764 32.7609 29.2855 32.6653 29.0464C31.6414 26.5275 30.5976 24.0166 29.5617 21.5018C29.5139 21.3742 29.4542 21.2507 29.3824 21.1351L34.2908 28.9547C34.3147 28.9946 34.3864 29.0065 34.5418 29.0822C34.5418 28.7116 34.5936 28.3927 34.5338 28.0978C33.996 25.3598 33.4422 22.6257 32.8924 19.8916C32.8765 19.8239 32.8964 19.7521 32.9442 19.7043C33.1872 20.4257 33.4223 21.151 33.6812 21.8684C34.3904 23.8413 35.1075 25.8141 35.8326 27.783C35.9322 28.05 36.1075 28.2891 36.247 28.5442L36.4542 28.5043C36.5059 28.0181 36.5976 27.5319 36.5976 27.0456C36.5936 24.4192 36.5697 21.7927 36.5538 19.1662C36.5538 19.0028 36.5538 18.8394 36.5657 18.676C37.0797 21.9163 37.3147 25.2003 38.0956 28.3927L38.3147 28.4087C38.4024 28.1895 38.5259 27.9782 38.5777 27.7511C38.9681 25.9656 39.3585 24.1761 39.7291 22.3866C39.9362 21.3623 40.1075 20.33 40.3824 19.3057C40.3306 20.1028 40.2629 20.896 40.231 21.6931C40.1394 23.8373 40.0597 25.9855 39.988 28.1337C39.984 28.2851 40.0996 28.4406 40.1593 28.592C40.2789 28.4725 40.4462 28.3768 40.5099 28.2333C41.2988 26.4478 42.0757 24.6583 42.8406 22.8648C43.2271 21.9521 43.5737 21.0275 43.9761 20.1228C43.2789 23.1398 42.2908 26.0931 41.8326 29.1619L42.0119 29.2696C42.2071 29.0743 42.4342 28.8989 42.5896 28.6757C43.4621 27.4402 44.3307 26.2047 45.1753 24.9532C45.8406 23.9688 46.4741 22.9684 47.1235 21.976C47.1912 21.8684 47.2669 21.7688 47.4103 21.701C46.7211 23.1 46.0199 24.4949 45.3466 25.9018C44.6733 27.3087 43.9681 28.6438 43.5179 30.1105L43.6852 30.2301C43.8605 30.1145 44.0557 30.0228 44.2032 29.8793C45.8964 28.2333 47.5856 26.5873 49.2629 24.9333C49.6892 24.5148 50.1155 24.0963 50.5577 23.6858C48.6852 26.2206 46.6334 28.6239 44.9681 31.3062L45.1115 31.4775C45.3426 31.3859 45.5936 31.3261 45.8008 31.1946C47.2271 30.2938 48.6494 29.3851 50.0597 28.4565C51.0836 27.779 52.0836 27.0735 53.1155 26.4079C50.8048 28.5482 48.3187 30.4931 46.1753 32.8047L46.2629 32.9881C46.502 32.9442 46.7609 32.9482 46.984 32.8605C49.2191 31.9678 51.4542 31.067 53.6852 30.1623C54.1474 29.975 54.6016 29.7677 55.0996 29.6402L54.7171 29.8674C52.3625 31.2663 50.0079 32.6692 47.6573 34.0681C47.4382 34.1996 47.2709 34.4109 47.1275 34.6779C50.3386 34.4707 53.4103 33.6377 56.5418 33.1036C55.3665 33.4982 54.1832 33.8768 53.0159 34.2953C51.3864 34.8732 49.7689 35.479 48.1514 36.0848C47.9522 36.1565 47.7888 36.312 47.6056 36.4276L47.6534 36.6229C48.2032 36.6707 48.753 36.7623 49.3028 36.7623C51.9123 36.7623 54.5219 36.7384 57.1354 36.7225H57.6255C54.2749 37.2645 50.9601 37.4518 47.749 38.2569L47.737 38.4642C47.9681 38.5598 48.1952 38.6874 48.4382 38.7392C50.7211 39.2214 53.004 39.6957 55.2868 40.162C55.8287 40.2736 56.3785 40.3653 56.9163 40.5008C53.8048 40.4051 50.7012 40.0066 47.5816 40.1301L47.502 40.3174C47.6573 40.441 47.7928 40.6004 47.9641 40.6801C49.5458 41.3776 51.1315 42.0751 52.7211 42.7486C53.8526 43.2229 54.996 43.6573 56.1235 44.1435C53.0717 43.4421 50.0916 42.4298 46.984 41.9754C46.9522 42.0432 46.9163 42.1149 46.8804 42.1827Z" fill="#0B0B0B"/>
</g>
<defs>
<clipPath id="clip0_755_1836">
<rect width="76" height="76" fill="white"/>
</clipPath>
</defs>
</svg>
