<svg width="16" height="17" viewBox="0 0 16 17" fill="none" xmlns="http://www.w3.org/2000/svg">
<g clip-path="url(#clip0_755_1872)">
<path d="M4.00001 4.5C4.00001 3.96957 4.21072 3.46086 4.58579 3.08579C4.96087 2.71071 5.46958 2.5 6.00001 2.5H10C10.5304 2.5 11.0391 2.71071 11.4142 3.08579C11.7893 3.46086 12 3.96957 12 4.5V12.5C12 13.0304 11.7893 13.5391 11.4142 13.9142C11.0391 14.2893 10.5304 14.5 10 14.5H6.00001C5.46958 14.5 4.96087 14.2893 4.58579 13.9142C4.21072 13.5391 4.00001 13.0304 4.00001 12.5V4.5ZM9.00001 11.5C9.00001 11.2348 8.89465 10.9804 8.70712 10.7929C8.51958 10.6054 8.26523 10.5 8.00001 10.5C7.73479 10.5 7.48044 10.6054 7.2929 10.7929C7.10537 10.9804 7.00001 11.2348 7.00001 11.5C7.00001 11.7652 7.10537 12.0196 7.2929 12.2071C7.48044 12.3946 7.73479 12.5 8.00001 12.5C8.26523 12.5 8.51958 12.3946 8.70712 12.2071C8.89465 12.0196 9.00001 11.7652 9.00001 11.5ZM1.80701 5.234C1.86907 5.11677 1.88202 4.9797 1.84301 4.85292C1.80401 4.72615 1.71623 4.62006 1.59901 4.558C1.48178 4.49594 1.3447 4.48299 1.21793 4.522C1.09116 4.561 0.985069 4.64877 0.923009 4.766C0.314994 5.9166 -0.00190782 7.19863 8.64084e-06 8.5C8.64084e-06 9.847 0.334009 11.118 0.923009 12.234C0.953738 12.292 0.995599 12.3435 1.0462 12.3853C1.0968 12.4272 1.15516 12.4587 1.21793 12.478C1.2807 12.4973 1.34666 12.5041 1.41205 12.4979C1.47744 12.4917 1.54096 12.4727 1.59901 12.442C1.65705 12.4113 1.70848 12.3694 1.75034 12.3188C1.79221 12.2682 1.8237 12.2099 1.84301 12.1471C1.86233 12.0843 1.86909 12.0183 1.86291 11.953C1.85673 11.8876 1.83774 11.824 1.80701 11.766C1.27525 10.7596 0.998176 9.63824 1.00001 8.5C1.00001 7.32 1.29201 6.208 1.80701 5.234ZM15.077 4.766C15.0149 4.64877 14.9089 4.561 14.7821 4.522C14.6553 4.48299 14.5182 4.49594 14.401 4.558C14.2838 4.62006 14.196 4.72615 14.157 4.85292C14.118 4.9797 14.1309 5.11677 14.193 5.234C14.708 6.208 15 7.319 15 8.5C15 9.68 14.708 10.792 14.193 11.766C14.1309 11.8832 14.118 12.0203 14.157 12.1471C14.196 12.2739 14.2838 12.3799 14.401 12.442C14.5182 12.5041 14.6553 12.517 14.7821 12.478C14.9089 12.439 15.0149 12.3512 15.077 12.234C15.685 11.0834 16.0019 9.80137 16 8.5C16.0019 7.19863 15.685 5.9166 15.077 4.766ZM3.34001 6.682C3.36791 6.6202 3.38296 6.55337 3.38422 6.48557C3.38549 6.41777 3.37295 6.35043 3.34737 6.28763C3.32179 6.22483 3.2837 6.16789 3.23543 6.12027C3.18715 6.07265 3.12969 6.03535 3.06655 6.01063C3.0034 5.98592 2.93589 5.97431 2.86811 5.9765C2.80034 5.9787 2.73372 5.99466 2.67231 6.02341C2.6109 6.05216 2.55597 6.0931 2.51088 6.14375C2.46579 6.19439 2.43147 6.25368 2.41001 6.318C2.13847 7.0134 1.99942 7.75346 2.00001 8.5C2.00001 9.269 2.14501 10.005 2.41001 10.682C2.43147 10.7463 2.46579 10.8056 2.51088 10.8563C2.55597 10.9069 2.6109 10.9478 2.67231 10.9766C2.73372 11.0053 2.80034 11.0213 2.86811 11.0235C2.93589 11.0257 3.0034 11.0141 3.06655 10.9894C3.12969 10.9647 3.18715 10.9274 3.23543 10.8797C3.2837 10.8321 3.32179 10.7752 3.34737 10.7124C3.37295 10.6496 3.38549 10.5822 3.38422 10.5144C3.38296 10.4466 3.36791 10.3798 3.34001 10.318C3.11429 9.73851 2.99897 9.1219 3.00001 8.5C3.00001 7.858 3.12001 7.245 3.34001 6.682ZM13.59 6.318C13.5373 6.20117 13.4416 6.10906 13.3229 6.0607C13.2042 6.01234 13.0714 6.01143 12.9521 6.05815C12.8327 6.10488 12.7358 6.19566 12.6815 6.31176C12.6271 6.42786 12.6194 6.5604 12.66 6.682C12.88 7.245 13 7.858 13 8.5C13 9.142 12.88 9.755 12.66 10.318C12.6194 10.4396 12.6271 10.5721 12.6815 10.6882C12.7358 10.8043 12.8327 10.8951 12.9521 10.9418C13.0714 10.9886 13.2042 10.9877 13.3229 10.9393C13.4416 10.8909 13.5373 10.7988 13.59 10.682C13.856 10.005 14 9.269 14 8.5C14 7.731 13.855 6.995 13.59 6.318Z" fill="black"/>
</g>
<defs>
<clipPath id="clip0_755_1872">
<rect width="16" height="16" fill="white" transform="translate(0 0.5)"/>
</clipPath>
</defs>
</svg>
