<svg width="80" height="80" viewBox="0 0 80 80" fill="none" xmlns="http://www.w3.org/2000/svg">
<g filter="url(#filter0_d_739_520)">
<rect x="4" width="72" height="72" rx="36" fill="white"/>
</g>
<path d="M48 30.34C46.9282 29.6653 46.0449 28.7299 45.4328 27.6211C44.8208 26.5124 44.4998 25.2665 44.5 24H25.92C25.7406 24.0028 25.5623 24.0297 25.39 24.08L39.84 38.47L48 30.34Z" fill="black"/>
<path d="M52 31.5C51.3233 31.4941 50.6505 31.3966 50 31.21L41.29 39.89C40.9153 40.2625 40.4084 40.4716 39.88 40.4716C39.3516 40.4716 38.8447 40.2625 38.47 39.89L24 25.5C23.9556 25.663 23.9321 25.831 23.93 26V46C23.93 46.5304 24.1407 47.0391 24.5158 47.4142C24.8909 47.7893 25.3996 48 25.93 48H53.93C54.4604 48 54.9691 47.7893 55.3442 47.4142C55.7193 47.0391 55.93 46.5304 55.93 46V30.39C54.749 31.1188 53.3878 31.5033 52 31.5ZM27.3 46H25.91V44.57L33.18 37.36L34.59 38.77L27.3 46ZM53.91 46H52.51L45.22 38.77L46.63 37.36L53.9 44.57L53.91 46Z" fill="black"/>
<path d="M52 29C54.7614 29 57 26.7614 57 24C57 21.2386 54.7614 19 52 19C49.2386 19 47 21.2386 47 24C47 26.7614 49.2386 29 52 29Z" fill="#EB5757"/>
<defs>
<filter id="filter0_d_739_520" x="0" y="0" width="80" height="80" filterUnits="userSpaceOnUse" color-interpolation-filters="sRGB">
<feFlood flood-opacity="0" result="BackgroundImageFix"/>
<feColorMatrix in="SourceAlpha" type="matrix" values="0 0 0 0 0 0 0 0 0 0 0 0 0 0 0 0 0 0 127 0" result="hardAlpha"/>
<feOffset dy="4"/>
<feGaussianBlur stdDeviation="2"/>
<feComposite in2="hardAlpha" operator="out"/>
<feColorMatrix type="matrix" values="0 0 0 0 0 0 0 0 0 0 0 0 0 0 0 0 0 0 0.25 0"/>
<feBlend mode="normal" in2="BackgroundImageFix" result="effect1_dropShadow_739_520"/>
<feBlend mode="normal" in="SourceGraphic" in2="effect1_dropShadow_739_520" result="shape"/>
</filter>
</defs>
</svg>
