<svg width="18" height="18" viewBox="0 0 18 18" fill="none" xmlns="http://www.w3.org/2000/svg">
<path d="M11.6892 9C11.6892 8.21333 11.4158 7.54 10.8692 6.98C10.3225 6.42 9.64916 6.14 8.84916 6.14C8.04916 6.14 7.37582 6.42 6.82916 6.98C6.28249 7.54 6.00249 8.21333 5.98916 9C5.97582 9.78667 6.25582 10.46 6.82916 11.02C7.40249 11.58 8.07582 11.86 8.84916 11.86C9.62249 11.86 10.2958 11.58 10.8692 11.02C11.4425 10.46 11.7158 9.78667 11.6892 9ZM13.2292 9C13.2292 10.2133 12.8025 11.2533 11.9492 12.12C11.0958 12.9867 10.0625 13.4133 8.84916 13.4C7.63582 13.3867 6.59582 12.96 5.72916 12.12C4.86249 11.28 4.43582 10.24 4.44916 9C4.46249 7.76 4.88916 6.72 5.72916 5.88C6.56916 5.04 7.60916 4.61333 8.84916 4.6C10.0892 4.58667 11.1225 5.01333 11.9492 5.88C12.7758 6.74667 13.2025 7.78667 13.2292 9ZM14.4492 4.42C14.4492 4.7 14.3492 4.94 14.1492 5.14C13.9492 5.34 13.7025 5.44 13.4092 5.44C13.1158 5.44 12.8758 5.34 12.6892 5.14C12.5025 4.94 12.4025 4.7 12.3892 4.42C12.3758 4.14 12.4758 3.9 12.6892 3.7C12.9025 3.5 13.1425 3.4 13.4092 3.4C13.6758 3.4 13.9225 3.5 14.1492 3.7C14.3758 3.9 14.4758 4.14 14.4492 4.42ZM8.84916 1.96C8.79582 1.96 8.50916 1.96 7.98916 1.96H6.80916C6.54249 1.96 6.18249 1.97333 5.72916 2C5.27582 2.02667 4.89582 2.06 4.58916 2.1C4.28249 2.14 4.01582 2.21333 3.78916 2.32C3.41582 2.46667 3.08916 2.68 2.80916 2.96C2.52916 3.24 2.30916 3.56667 2.14916 3.94C2.06916 4.15333 2.00249 4.42 1.94916 4.74C1.89582 5.06 1.85582 5.44667 1.82916 5.9C1.80249 6.35333 1.79582 6.70667 1.80916 6.96C1.82249 7.21333 1.82249 7.60667 1.80916 8.14C1.79582 8.67333 1.79582 8.96 1.80916 9C1.82249 9.04 1.82249 9.32667 1.80916 9.86C1.79582 10.3933 1.79582 10.7867 1.80916 11.04C1.82249 11.2933 1.82916 11.6467 1.82916 12.1C1.82916 12.5533 1.86916 12.94 1.94916 13.26L2.14916 14.06C2.30916 14.4333 2.52916 14.76 2.80916 15.04C3.08916 15.32 3.41582 15.5333 3.78916 15.68C4.00249 15.76 4.26916 15.8333 4.58916 15.9C4.90916 15.9667 5.28916 16 5.72916 16C6.16916 16 6.52916 16.0133 6.80916 16.04C7.08916 16.0667 7.48249 16.0667 7.98916 16.04C8.49582 16.0133 8.78249 16.0133 8.84916 16.04C8.91582 16.0667 9.19582 16.0667 9.68916 16.04C10.1825 16.0133 10.5758 16.0133 10.8692 16.04C11.1625 16.0667 11.5225 16.0533 11.9492 16C12.3758 15.9467 12.7625 15.9133 13.1092 15.9C13.4558 15.8867 13.7158 15.8133 13.8892 15.68C14.2625 15.5333 14.5958 15.32 14.8892 15.04C15.1825 14.76 15.3958 14.4333 15.5292 14.06C15.6092 13.8467 15.6758 13.58 15.7292 13.26C15.7825 12.94 15.8225 12.5533 15.8492 12.1C15.8758 11.6467 15.8825 11.2933 15.8692 11.04C15.8558 10.7867 15.8558 10.3933 15.8692 9.86C15.8825 9.32667 15.8825 9.04 15.8692 9C15.8558 8.96 15.8558 8.67333 15.8692 8.14C15.8825 7.60667 15.8825 7.21333 15.8692 6.96C15.8558 6.70667 15.8492 6.35333 15.8492 5.9C15.8492 5.44667 15.8092 5.06 15.7292 4.74L15.5292 3.94C15.3825 3.56667 15.1692 3.24 14.8892 2.96C14.6092 2.68 14.2758 2.46667 13.8892 2.32C13.6758 2.24 13.4158 2.16667 13.1092 2.1C12.8025 2.03333 12.4158 2 11.9492 2C11.4825 2 11.1225 1.98667 10.8692 1.96C10.6158 1.93333 10.2225 1.93333 9.68916 1.96C9.15582 1.98667 8.87582 1.98667 8.84916 1.96ZM17.4092 9C17.4092 10.7067 17.3892 11.8867 17.3492 12.54C17.2825 14.0867 16.8225 15.2867 15.9692 16.14C15.1158 16.9933 13.9225 17.4533 12.3892 17.52C11.7225 17.56 10.5425 17.58 8.84916 17.58C7.15582 17.58 5.97582 17.56 5.30916 17.52C3.76249 17.44 2.56249 16.98 1.70916 16.14C0.855823 15.3 0.395823 14.1 0.329156 12.54C0.289156 11.8867 0.269156 10.7067 0.269156 9C0.269156 7.29333 0.289156 6.11333 0.329156 5.46C0.395823 3.91333 0.855823 2.71333 1.70916 1.86C2.56249 1.00667 3.76249 0.546666 5.30916 0.48C5.96249 0.439999 7.14249 0.419999 8.84916 0.419999C10.5558 0.419999 11.7358 0.439999 12.3892 0.48C13.9358 0.559999 15.1292 1.02 15.9692 1.86C16.8092 2.7 17.2692 3.9 17.3492 5.46C17.3892 6.11333 17.4092 7.29333 17.4092 9Z" fill="black"/>
</svg>
