<svg width="23" height="15" viewBox="0 0 23 15" fill="none" xmlns="http://www.w3.org/2000/svg">
<path d="M21.5387 2.38281C21.3043 1.44531 20.5621 0.703125 19.6637 0.46875C17.984 0 11.3434 0 11.3434 0C11.3434 0 4.66369 0 2.984 0.46875C2.08556 0.703125 1.34338 1.44531 1.109 2.38281C0.64025 4.02344 0.64025 7.53906 0.64025 7.53906C0.64025 7.53906 0.64025 11.0156 1.109 12.6953C1.34338 13.6328 2.08556 14.3359 2.984 14.5703C4.66369 15 11.3434 15 11.3434 15C11.3434 15 17.984 15 19.6637 14.5703C20.5621 14.3359 21.3043 13.6328 21.5387 12.6953C22.0074 11.0156 22.0074 7.53906 22.0074 7.53906C22.0074 7.53906 22.0074 4.02344 21.5387 2.38281ZM9.15588 10.7031V4.375L14.7028 7.53906L9.15588 10.7031Z" fill="black"/>
</svg>
