<svg width="16" height="17" viewBox="0 0 16 17" fill="none" xmlns="http://www.w3.org/2000/svg">
<g clip-path="url(#clip0_919_416)">
<path d="M3.99999 4.5C3.99999 3.96957 4.21071 3.46086 4.58578 3.08579C4.96085 2.71071 5.46956 2.5 5.99999 2.5H9.99999C10.5304 2.5 11.0391 2.71071 11.4142 3.08579C11.7893 3.46086 12 3.96957 12 4.5V12.5C12 13.0304 11.7893 13.5391 11.4142 13.9142C11.0391 14.2893 10.5304 14.5 9.99999 14.5H5.99999C5.46956 14.5 4.96085 14.2893 4.58578 13.9142C4.21071 13.5391 3.99999 13.0304 3.99999 12.5V4.5ZM8.99999 11.5C8.99999 11.2348 8.89464 10.9804 8.7071 10.7929C8.51956 10.6054 8.26521 10.5 7.99999 10.5C7.73478 10.5 7.48042 10.6054 7.29289 10.7929C7.10535 10.9804 6.99999 11.2348 6.99999 11.5C6.99999 11.7652 7.10535 12.0196 7.29289 12.2071C7.48042 12.3946 7.73478 12.5 7.99999 12.5C8.26521 12.5 8.51956 12.3946 8.7071 12.2071C8.89464 12.0196 8.99999 11.7652 8.99999 11.5ZM1.80699 5.234C1.86905 5.11677 1.88201 4.9797 1.843 4.85292C1.80399 4.72615 1.71622 4.62006 1.59899 4.558C1.48177 4.49594 1.34469 4.48299 1.21792 4.522C1.09114 4.561 0.985054 4.64877 0.922993 4.766C0.314979 5.9166 -0.00192308 7.19863 -6.61795e-06 8.5C-6.61795e-06 9.847 0.333993 11.118 0.922993 12.234C0.953723 12.292 0.995584 12.3435 1.04619 12.3853C1.09679 12.4272 1.15514 12.4587 1.21792 12.478C1.28069 12.4973 1.34665 12.5041 1.41204 12.4979C1.47742 12.4917 1.54095 12.4727 1.59899 12.442C1.65704 12.4113 1.70846 12.3694 1.75033 12.3188C1.79219 12.2682 1.82368 12.2099 1.843 12.1471C1.86231 12.0843 1.86907 12.0183 1.8629 11.953C1.85672 11.8876 1.83772 11.824 1.80699 11.766C1.27524 10.7596 0.99816 9.63824 0.999993 8.5C0.999993 7.32 1.29199 6.208 1.80699 5.234ZM15.077 4.766C15.0149 4.64877 14.9088 4.561 14.7821 4.522C14.6553 4.48299 14.5182 4.49594 14.401 4.558C14.2838 4.62006 14.196 4.72615 14.157 4.85292C14.118 4.9797 14.1309 5.11677 14.193 5.234C14.708 6.208 15 7.319 15 8.5C15 9.68 14.708 10.792 14.193 11.766C14.1309 11.8832 14.118 12.0203 14.157 12.1471C14.196 12.2739 14.2838 12.3799 14.401 12.442C14.5182 12.5041 14.6553 12.517 14.7821 12.478C14.9088 12.439 15.0149 12.3512 15.077 12.234C15.685 11.0834 16.0019 9.80137 16 8.5C16.0019 7.19863 15.685 5.9166 15.077 4.766ZM3.33999 6.682C3.3679 6.6202 3.38294 6.55337 3.38421 6.48557C3.38547 6.41777 3.37293 6.35043 3.34735 6.28763C3.32177 6.22483 3.28369 6.16789 3.23541 6.12027C3.18713 6.07265 3.12968 6.03535 3.06653 6.01063C3.00339 5.98592 2.93587 5.97431 2.8681 5.9765C2.80033 5.9787 2.73371 5.99466 2.67229 6.02341C2.61088 6.05216 2.55596 6.0931 2.51087 6.14375C2.46577 6.19439 2.43145 6.25368 2.40999 6.318C2.13846 7.0134 1.9994 7.75346 1.99999 8.5C1.99999 9.269 2.14499 10.005 2.40999 10.682C2.43145 10.7463 2.46577 10.8056 2.51087 10.8563C2.55596 10.9069 2.61088 10.9478 2.67229 10.9766C2.73371 11.0053 2.80033 11.0213 2.8681 11.0235C2.93587 11.0257 3.00339 11.0141 3.06653 10.9894C3.12968 10.9647 3.18713 10.9274 3.23541 10.8797C3.28369 10.8321 3.32177 10.7752 3.34735 10.7124C3.37293 10.6496 3.38547 10.5822 3.38421 10.5144C3.38294 10.4466 3.3679 10.3798 3.33999 10.318C3.11427 9.73851 2.99896 9.1219 2.99999 8.5C2.99999 7.858 3.11999 7.245 3.33999 6.682ZM13.59 6.318C13.5372 6.20117 13.4416 6.10906 13.3229 6.0607C13.2042 6.01234 13.0714 6.01143 12.9521 6.05815C12.8327 6.10488 12.7358 6.19566 12.6815 6.31176C12.6271 6.42786 12.6194 6.5604 12.66 6.682C12.88 7.245 13 7.858 13 8.5C13 9.142 12.88 9.755 12.66 10.318C12.6194 10.4396 12.6271 10.5721 12.6815 10.6882C12.7358 10.8043 12.8327 10.8951 12.9521 10.9418C13.0714 10.9886 13.2042 10.9877 13.3229 10.9393C13.4416 10.8909 13.5372 10.7988 13.59 10.682C13.856 10.005 14 9.269 14 8.5C14 7.731 13.855 6.995 13.59 6.318Z" fill="black"/>
</g>
<defs>
<clipPath id="clip0_919_416">
<rect width="16" height="16" fill="white" transform="translate(0 0.5)"/>
</clipPath>
</defs>
</svg>
