<svg width="46" height="46" viewBox="0 0 46 46" fill="none" xmlns="http://www.w3.org/2000/svg">
<path d="M32.5387 18.3828C32.3043 17.4453 31.5621 16.7031 30.6637 16.4688C28.984 16 22.3434 16 22.3434 16C22.3434 16 15.6637 16 13.984 16.4688C13.0856 16.7031 12.3434 17.4453 12.109 18.3828C11.6403 20.0234 11.6403 23.5391 11.6403 23.5391C11.6403 23.5391 11.6403 27.0156 12.109 28.6953C12.3434 29.6328 13.0856 30.3359 13.984 30.5703C15.6637 31 22.3434 31 22.3434 31C22.3434 31 28.984 31 30.6637 30.5703C31.5621 30.3359 32.3043 29.6328 32.5387 28.6953C33.0074 27.0156 33.0074 23.5391 33.0074 23.5391C33.0074 23.5391 33.0074 20.0234 32.5387 18.3828ZM20.1559 26.7031V20.375L25.7028 23.5391L20.1559 26.7031Z" fill="white"/>
</svg>
