<svg width="46" height="46" viewBox="0 0 46 46" fill="none" xmlns="http://www.w3.org/2000/svg">
<path d="M24.6892 23C24.6892 22.2133 24.4158 21.54 23.8692 20.98C23.3225 20.42 22.6492 20.14 21.8492 20.14C21.0492 20.14 20.3758 20.42 19.8292 20.98C19.2825 21.54 19.0025 22.2133 18.9892 23C18.9758 23.7867 19.2558 24.46 19.8292 25.02C20.4025 25.58 21.0758 25.86 21.8492 25.86C22.6225 25.86 23.2958 25.58 23.8692 25.02C24.4425 24.46 24.7158 23.7867 24.6892 23ZM26.2292 23C26.2292 24.2133 25.8025 25.2533 24.9492 26.12C24.0958 26.9867 23.0625 27.4133 21.8492 27.4C20.6358 27.3867 19.5958 26.96 18.7292 26.12C17.8625 25.28 17.4358 24.24 17.4492 23C17.4625 21.76 17.8892 20.72 18.7292 19.88C19.5692 19.04 20.6092 18.6133 21.8492 18.6C23.0892 18.5867 24.1225 19.0133 24.9492 19.88C25.7758 20.7467 26.2025 21.7867 26.2292 23ZM27.4492 18.42C27.4492 18.7 27.3492 18.94 27.1492 19.14C26.9492 19.34 26.7025 19.44 26.4092 19.44C26.1158 19.44 25.8758 19.34 25.6892 19.14C25.5025 18.94 25.4025 18.7 25.3892 18.42C25.3758 18.14 25.4758 17.9 25.6892 17.7C25.9025 17.5 26.1425 17.4 26.4092 17.4C26.6758 17.4 26.9225 17.5 27.1492 17.7C27.3758 17.9 27.4758 18.14 27.4492 18.42ZM21.8492 15.96C21.7958 15.96 21.5092 15.96 20.9892 15.96H19.8092C19.5425 15.96 19.1825 15.9733 18.7292 16C18.2758 16.0267 17.8958 16.06 17.5892 16.1C17.2825 16.14 17.0158 16.2133 16.7892 16.32C16.4158 16.4667 16.0892 16.68 15.8092 16.96C15.5292 17.24 15.3092 17.5667 15.1492 17.94C15.0692 18.1533 15.0025 18.42 14.9492 18.74C14.8958 19.06 14.8558 19.4467 14.8292 19.9C14.8025 20.3533 14.7958 20.7067 14.8092 20.96C14.8225 21.2133 14.8225 21.6067 14.8092 22.14C14.7958 22.6733 14.7958 22.96 14.8092 23C14.8225 23.04 14.8225 23.3267 14.8092 23.86C14.7958 24.3933 14.7958 24.7867 14.8092 25.04C14.8225 25.2933 14.8292 25.6467 14.8292 26.1C14.8292 26.5533 14.8692 26.94 14.9492 27.26L15.1492 28.06C15.3092 28.4333 15.5292 28.76 15.8092 29.04C16.0892 29.32 16.4158 29.5333 16.7892 29.68C17.0025 29.76 17.2692 29.8333 17.5892 29.9C17.9092 29.9667 18.2892 30 18.7292 30C19.1692 30 19.5292 30.0133 19.8092 30.04C20.0892 30.0667 20.4825 30.0667 20.9892 30.04C21.4958 30.0133 21.7825 30.0133 21.8492 30.04C21.9158 30.0667 22.1958 30.0667 22.6892 30.04C23.1825 30.0133 23.5758 30.0133 23.8692 30.04C24.1625 30.0667 24.5225 30.0533 24.9492 30C25.3758 29.9467 25.7625 29.9133 26.1092 29.9C26.4558 29.8867 26.7158 29.8133 26.8892 29.68C27.2625 29.5333 27.5958 29.32 27.8892 29.04C28.1825 28.76 28.3958 28.4333 28.5292 28.06C28.6092 27.8467 28.6758 27.58 28.7292 27.26C28.7825 26.94 28.8225 26.5533 28.8492 26.1C28.8758 25.6467 28.8825 25.2933 28.8692 25.04C28.8558 24.7867 28.8558 24.3933 28.8692 23.86C28.8825 23.3267 28.8825 23.04 28.8692 23C28.8558 22.96 28.8558 22.6733 28.8692 22.14C28.8825 21.6067 28.8825 21.2133 28.8692 20.96C28.8558 20.7067 28.8492 20.3533 28.8492 19.9C28.8492 19.4467 28.8092 19.06 28.7292 18.74L28.5292 17.94C28.3825 17.5667 28.1692 17.24 27.8892 16.96C27.6092 16.68 27.2758 16.4667 26.8892 16.32C26.6758 16.24 26.4158 16.1667 26.1092 16.1C25.8025 16.0333 25.4158 16 24.9492 16C24.4825 16 24.1225 15.9867 23.8692 15.96C23.6158 15.9333 23.2225 15.9333 22.6892 15.96C22.1558 15.9867 21.8758 15.9867 21.8492 15.96ZM30.4092 23C30.4092 24.7067 30.3892 25.8867 30.3492 26.54C30.2825 28.0867 29.8225 29.2867 28.9692 30.14C28.1158 30.9933 26.9225 31.4533 25.3892 31.52C24.7225 31.56 23.5425 31.58 21.8492 31.58C20.1558 31.58 18.9758 31.56 18.3092 31.52C16.7625 31.44 15.5625 30.98 14.7092 30.14C13.8558 29.3 13.3958 28.1 13.3292 26.54C13.2892 25.8867 13.2692 24.7067 13.2692 23C13.2692 21.2933 13.2892 20.1133 13.3292 19.46C13.3958 17.9133 13.8558 16.7133 14.7092 15.86C15.5625 15.0067 16.7625 14.5467 18.3092 14.48C18.9625 14.44 20.1425 14.42 21.8492 14.42C23.5558 14.42 24.7358 14.44 25.3892 14.48C26.9358 14.56 28.1292 15.02 28.9692 15.86C29.8092 16.7 30.2692 17.9 30.3492 19.46C30.3892 20.1133 30.4092 21.2933 30.4092 23Z" fill="white"/>
</svg>
