<svg width="46" height="46" viewBox="0 0 46 46" fill="none" xmlns="http://www.w3.org/2000/svg">
<path d="M31.146 17.56C30.6527 18.28 30.0527 18.9 29.346 19.42V19.88C29.346 20.8533 29.206 21.82 28.926 22.78C28.646 23.74 28.2194 24.6667 27.646 25.56C27.0727 26.4533 26.386 27.2333 25.586 27.9C24.786 28.5667 23.826 29.1133 22.706 29.54C21.586 29.9667 20.3794 30.1667 19.086 30.14C17.0727 30.14 15.2327 29.6 13.566 28.52C13.8194 28.5467 14.106 28.56 14.426 28.56C16.106 28.56 17.5994 28.0467 18.906 27.02C18.1194 27.0067 17.4194 26.7667 16.806 26.3C16.1927 25.8333 15.766 25.24 15.526 24.52C15.7794 24.56 16.006 24.58 16.206 24.58C16.526 24.58 16.846 24.54 17.166 24.46C16.326 24.2867 15.6327 23.8733 15.086 23.22C14.5394 22.5667 14.266 21.8 14.266 20.92V20.88C14.7727 21.16 15.3194 21.3133 15.906 21.34C15.4127 21.0067 15.0194 20.58 14.726 20.06C14.4327 19.54 14.286 18.96 14.286 18.32C14.286 17.68 14.4527 17.08 14.786 16.52C15.6927 17.6267 16.786 18.5133 18.066 19.18C19.346 19.8467 20.7327 20.2133 22.226 20.28C22.1594 20 22.126 19.7267 22.126 19.46C22.126 18.46 22.4794 17.6133 23.186 16.92C23.8927 16.2267 24.7394 15.8733 25.726 15.86C26.7794 15.86 27.6594 16.24 28.366 17C29.1794 16.84 29.946 16.5467 30.666 16.12C30.386 16.9733 29.8527 17.64 29.066 18.12C29.7594 18.04 30.4527 17.8533 31.146 17.56Z" fill="white"/>
</svg>
